HIERARCHY
ROOT Hips
{
	OFFSET	0.00	0.00	0.00
	CHANNELS 6 Xposition Yposition Zposition Zrotation Xrotation Yrotation
	JOINT LeftUpLeg
	{
		OFFSET	 0.126116	-0.065224	 0.014019
		CHANNELS 3 Zrotation Xrotation Yrotation
		JOINT LeftLeg
		{
			OFFSET	 0.000000	 0.569914	 0.000000
			CHANNELS 3 Zrotation Xrotation Yrotation
			JOINT LeftFoot
			{
				OFFSET	 0.000000	 0.544423	 0.000000
				CHANNELS 3 Zrotation Xrotation Yrotation
				JOINT LeftToeBase
				{
					OFFSET	 0.000000	 0.207117	 0.000000
					CHANNELS 3 Zrotation Xrotation Yrotation
					End Site
					{
						OFFSET	 0.000000	 0.207117	 0.000000
					}
				}
			}
		}
	}
	JOINT RightUpLeg
	{
		OFFSET	-0.124023	-0.065224	 0.008373
		CHANNELS 3 Zrotation Xrotation Yrotation
		JOINT RightLeg
		{
			OFFSET	 0.000000	 0.570047	 0.000000
			CHANNELS 3 Zrotation Xrotation Yrotation
			JOINT RightFoot
			{
				OFFSET	 0.000000	 0.544354	 0.000000
				CHANNELS 3 Zrotation Xrotation Yrotation
				JOINT RightToeBase
				{
					OFFSET	 0.000000	 0.207540	 0.000000
					CHANNELS 3 Zrotation Xrotation Yrotation
					End Site
					{
						OFFSET	 0.000000	 0.207540	 0.000000
					}
				}
			}
		}
	}
	JOINT Spine
	{
		OFFSET	 0.000184	 0.117403	 0.007763
		CHANNELS 3 Zrotation Xrotation Yrotation
		JOINT Spine1
		{
			OFFSET	 0.000000	 0.137269	 0.000000
			CHANNELS 3 Zrotation Xrotation Yrotation
			JOINT Spine2
			{
				OFFSET	 0.000000	 0.156879	 0.000000
				CHANNELS 3 Zrotation Xrotation Yrotation
				JOINT LeftShoulder
				{
					OFFSET	 0.080501	 0.160143	 0.002496
					CHANNELS 3 Zrotation Xrotation Yrotation
					JOINT LeftArm
					{
						OFFSET	 0.000000	 0.164363	 0.000000
						CHANNELS 3 Zrotation Xrotation Yrotation
						JOINT LeftForeArm
						{
							OFFSET	 0.000000	 0.364576	 0.000000
							CHANNELS 3 Zrotation Xrotation Yrotation
							JOINT LeftHand
							{
								OFFSET	 0.000000	 0.360812	 0.000000
								CHANNELS 3 Zrotation Xrotation Yrotation
								JOINT LeftHandIndex1
								{
									OFFSET	 0.000000	 0.086006	 0.000000
									CHANNELS 3 Zrotation Xrotation Yrotation
									JOINT LeftHandIndex2
									{
										OFFSET	 0.000000	 0.047237	 0.000000
										CHANNELS 3 Zrotation Xrotation Yrotation
										JOINT LeftHandIndex3
										{
											OFFSET	-0.004284	 0.038165	 0.000551
											CHANNELS 3 Zrotation Xrotation Yrotation
											End Site
											{
												OFFSET	-0.004284	 0.038165	 0.000551
											}
										}
									}
								}
							}
						}
					}
				}
				JOINT Neck
				{
					OFFSET	 0.000000	 0.176489	 0.000000
					CHANNELS 3 Zrotation Xrotation Yrotation
					JOINT Head
					{
						OFFSET	 0.000000	 0.077941	 0.001747
						CHANNELS 3 Zrotation Xrotation Yrotation
						End Site
						{
							OFFSET	 0.000000	 0.077941	 0.001747
						}
					}
				}
				JOINT RightShoulder
				{
					OFFSET	-0.080363	 0.159706	-0.000306
					CHANNELS 3 Zrotation Xrotation Yrotation
					JOINT RightArm
					{
						OFFSET	 0.000000	 0.164196	 0.000000
						CHANNELS 3 Zrotation Xrotation Yrotation
						JOINT RightForeArm
						{
							OFFSET	 0.000000	 0.365611	 0.000000
							CHANNELS 3 Zrotation Xrotation Yrotation
							JOINT RightHand
							{
								OFFSET	 0.000000	 0.360648	 0.000000
								CHANNELS 3 Zrotation Xrotation Yrotation
								JOINT RightHandIndex1
								{
									OFFSET	 0.000000	 0.069977	 0.000000
									CHANNELS 3 Zrotation Xrotation Yrotation
									JOINT RightHandIndex2
									{
										OFFSET	 0.000000	 0.052305	 0.000000
										CHANNELS 3 Zrotation Xrotation Yrotation
										JOINT RightHandIndex3
										{
											OFFSET	 0.009002	 0.042196	 0.000782
											CHANNELS 3 Zrotation Xrotation Yrotation
											End Site
											{
												OFFSET	 0.009002	 0.042196	 0.000782
											}
										}
									}
								}
							}
						}
					}
				}
			}
		}
	}
}
MOTION
Frames:    7
Frame Time: 0.03333334
-0.103571	 1.253405	-0.065386	 9.632112	-7.358474	-160.116200	-174.729500	 33.225970	 11.422190	 10.228910	-33.704190	 13.309270	 10.892260	 70.861790	-17.120900	 1.126181	 26.202250	-2.645591	 176.904300	 12.526840	 32.635580	-2.524302	-30.170360	 10.094930	 9.451145	 74.212370	-7.911520	-1.879050	 35.586070	 2.995476	-5.897961	 6.656970	 30.141780	-11.787280	 6.931651	 12.185750	 9.431671	-4.561123	-20.296890	-103.776000	 2.588310	 93.038620	 38.523370	 46.536650	-0.817870	 13.697150	-0.702021	 0.000451	 35.672060	 14.813550	 70.240680	 3.898742	 55.096550	-2.239259	-8.786855	 61.502480	 9.096827	 6.615683	 34.458510	 0.048479	 4.085184	-11.856340	-3.864661	 4.760143	-9.658604	-15.908460	 103.641300	 27.141310	-97.899020	-15.209580	 32.121170	-19.166730	-49.777820	-1.720691	-0.739830	 38.475040	-15.740610	-4.050634	-4.900620	 13.069600	-0.626326	 14.088230	 36.522140	-8.861164	-8.484206	 29.658570	-1.617350
-0.105203	 1.256336	-0.061028	 6.967057	-6.108561	-165.627600	-173.935600	 29.574880	 5.542118	 9.799850	-32.591830	 12.384020	 9.954165	 70.723630	-15.682780	 1.143848	 26.442800	-2.652486	 175.122700	 11.771850	 27.861710	-2.586407	-30.778680	 10.923700	 13.074790	 74.253140	-11.703920	-1.833266	 35.065200	 2.971037	-4.626716	 6.550634	 27.751100	-11.489810	 6.702156	 11.756230	 9.583570	-4.768138	-18.805780	-104.266400	 2.429779	 92.830770	 19.431780	 54.815170	 6.620916	 18.948380	-0.962628	 0.076780	 23.488100	 10.675000	 68.653400	 3.879328	 55.219260	-2.227424	-8.735587	 61.287760	 9.027705	 6.625357	 34.663830	 0.047382	 4.122019	-10.416970	-3.327152	 3.033614	-9.007050	-13.200050	 106.044100	 25.253820	-97.982580	-0.270328	 35.384210	-21.897160	-43.492840	-1.551185	-0.560228	 16.961860	-17.890840	-15.000940	-4.804873	 12.587480	-0.589229	 14.045770	 36.261290	-8.779966	-8.487341	 29.395310	-1.598663
-0.087938	 1.256905	-0.053010	 4.205362	-4.365731	-172.124600	-172.279800	 25.559160	-1.231837	 9.223639	-31.050880	 11.587920	 7.829775	 70.299450	-13.981210	 1.149070	 26.513770	-2.654536	 174.682600	 10.628800	 22.468780	-2.527284	-30.199780	 11.107700	 16.154520	 75.299320	-14.769050	-1.597802	 32.283530	 2.851291	-3.149692	 6.569548	 23.359990	-10.309630	 5.104413	 10.200850	 9.294067	-3.797138	-16.693790	-105.004300	 2.906341	 92.758540	 5.866138	 57.229420	 18.218470	 20.329940	-1.029961	 0.100824	 14.191070	 7.722775	 67.939300	 3.383218	 51.157860	-1.827513	-7.912492	 57.219150	 7.863601	 6.478790	 31.489580	 0.059520	 4.102953	-9.291348	-2.628228	 1.823578	-7.926546	-9.470638	 108.791500	 22.721290	-97.928180	 10.649420	 35.263160	-25.910680	-42.511230	-1.523013	-0.533889	 22.959690	-10.385070	-8.448265	-3.957894	 9.637142	-0.123994	 13.350170	 31.344110	-7.338180	-8.531199	 23.389570	-1.187659
-0.064160	 1.257673	-0.043260	 1.962413	-2.765397	-177.972000	-170.663400	 21.587110	-7.139255	 8.360353	-28.640750	 10.631040	 5.041901	 69.272410	-11.951800	 1.149285	 26.516750	-2.654619	 174.771200	 9.560491	 17.716270	-2.398622	-28.916110	 11.192210	 18.468000	 76.293350	-17.433490	-1.356596	 29.254180	 2.739667	-1.925546	 6.414451	 18.631950	-8.404425	 4.110105	 8.338141	 8.472691	-2.873136	-14.480740	-105.770500	 3.478376	 92.732060	-2.154677	 56.889150	 26.762780	 22.373880	-1.128416	 0.139286	 4.302260	 7.250883	 65.260030	 2.866752	 45.978370	-1.436529	-7.176677	 52.078710	 6.687338	 6.296988	 27.384290	 0.061119	 4.067806	-8.385106	-1.974671	 0.866379	-6.901310	-5.893002	 111.279700	 20.385230	-97.739510	 17.228980	 33.659430	-27.754150	-41.194160	-1.484334	-0.499328	 32.596920	-0.402026	-2.818849	-3.027187	 6.502546	 0.425837	 12.784620	 25.966420	-5.916356	-8.525937	 16.838480	-0.762374
-0.041220	 1.258825	-0.031673	 1.288775	-2.031869	 179.334100	-168.833800	 19.442410	-9.977334	 7.565973	-26.315390	 7.706625	-3.164624	 67.703350	-4.313270	 1.150041	 26.527060	-2.654920	 175.776000	 9.510729	 14.958090	-2.314763	-28.061880	 10.690940	 18.507680	 75.579340	-16.434790	-1.348450	 29.148810	 2.736101	-0.837187	 6.343832	 15.332170	-7.084650	 3.747197	 7.129269	 7.829672	-2.859446	-12.952170	-106.803100	 3.942276	 92.731310	-1.619270	 53.679780	 26.330820	 26.265470	-1.311829	 0.222219	 7.752920	 7.264502	 52.307700	 1.715135	 31.503610	-0.709425	-6.104118	 37.097540	 4.245711	 5.793923	 15.412360	-0.011227	 3.976923	-8.141770	-1.559458	 0.388084	-6.747561	-3.855632	 113.540200	 18.523800	-97.574550	 19.903280	 37.175460	-27.387610	-38.062590	-1.389648	-0.420734	 26.195810	 6.927530	-2.587526	-2.719818	 5.421362	 0.644875	 12.628220	 24.095090	-5.450701	-8.514622	 14.878690	-0.637829
-0.018365	 1.259696	-0.017504	 0.749792	-1.295170	 176.563300	-167.086300	 17.057050	-12.814220	 6.663057	-23.548990	 4.234075	-11.143850	 65.380610	 3.400318	 1.150841	 26.537970	-2.655237	 176.793700	 9.938466	 12.042610	-2.298244	-27.891860	 10.104410	 18.824430	 75.116360	-15.486590	-1.339848	 29.037330	 2.732350	 0.348649	 6.157938	 11.786690	-6.033450	 3.905815	 6.032181	 7.150033	-3.161585	-10.987800	-107.896300	 4.433051	 92.739650	 4.114250	 50.192060	 21.519670	 26.829900	-1.337907	 0.235270	 11.660470	 6.609195	 37.906520	 0.834565	 16.176170	-0.349645	-5.864786	 21.223160	 2.346345	 5.263011	 2.744048	-0.198927	 3.878886	-7.885017	-1.119977	-0.117391	-6.582472	-1.608585	 115.913000	 16.562530	-97.318600	 19.018910	 42.102120	-24.412230	-29.324330	-1.104145	-0.230304	 17.289790	 15.333570	-3.273616	-2.390620	 4.278682	 0.882583	 12.482970	 22.113900	-4.971012	-8.497996	 12.805110	-0.506753
-0.010390	 1.260799	-0.010682	 0.768582	-0.847844	 175.145400	-166.385500	 15.818520	-14.051630	 6.263437	-22.283700	 2.801236	-13.978830	 64.055200	 6.072900	 1.151935	 26.552820	-2.655671	 177.338000	 10.076860	 10.845570	-2.299460	-27.904350	 9.530444	 15.761660	 74.970010	-12.895060	-1.334980	 28.973980	 2.730235	 0.870725	 6.187456	 9.665533	-4.780042	 3.918264	 5.041660	 6.276386	-3.328374	-9.292832	-108.736200	 4.732100	 92.739610	 5.257268	 48.841410	 19.548130	 29.472290	-1.458439	 0.299779	 10.447540	 9.507872	 30.953650	 0.723346	 13.602520	-0.333224	-5.881150	 18.601660	 2.059570	 5.169294	 0.589788	-0.242271	 3.753876	-7.834067	-0.853121	-0.357949	-6.400890	-0.486796	 117.119400	 15.408500	-97.144060	 17.571340	 42.092170	-22.223290	-26.756920	-1.014919	-0.182786	 14.426110	 17.676380	-6.516881	-2.380570	 4.279000	 0.899118	 12.483040	 22.114920	-4.971260	-8.497910	 12.795980	-0.506180
